<?xml version="1.0" standalone="no"?>
<!DOCTYPE svg PUBLIC "-//W3C//DTD SVG 20010904//EN"
 "http://www.w3.org/TR/2001/REC-SVG-20010904/DTD/svg10.dtd">
<svg version="1.0" xmlns="http://www.w3.org/2000/svg"
 width="457.000000pt" height="457.000000pt" viewBox="0 0 457.000000 457.000000"
 preserveAspectRatio="xMidYMid meet">
<metadata>
Created by potrace 1.14, written by Peter Selinger 2001-2017
</metadata>
<g transform="translate(0.000000,457.000000) scale(0.100000,-0.100000)"
fill="#000000" stroke="none">
<path d="M0 4421 c0 -117 3 -150 14 -154 7 -3 18 -1 24 5 17 17 42 1 42 -26 0
-13 -7 -27 -16 -30 -10 -4 -14 -14 -11 -26 4 -14 -3 -23 -24 -32 l-29 -13 0
-219 0 -219 32 -29 c18 -16 33 -32 34 -36 0 -4 4 -15 9 -26 5 -11 4 -26 -2
-35 -15 -25 5 -46 50 -55 27 -5 37 -12 37 -26 0 -10 10 -26 22 -34 l22 -16
-22 0 c-17 0 -22 -6 -22 -25 0 -22 -4 -25 -40 -25 -22 0 -40 -4 -40 -9 0 -4
-18 -5 -40 -1 l-40 7 0 -1698 0 -1699 2076 0 2075 1 -6 32 c-4 17 -16 41 -26
53 -22 24 -24 35 -6 28 10 -3 13 4 13 28 -1 18 -4 38 -8 43 -3 6 -9 31 -12 57
-4 27 -11 48 -16 48 -5 0 -6 16 -3 35 4 23 2 35 -6 35 -6 0 -11 9 -11 20 0 11
-4 28 -10 38 -10 19 -35 78 -44 104 -3 10 -13 18 -22 18 -8 0 -14 6 -11 13 2
6 -2 17 -10 22 -7 6 -15 29 -18 52 -8 62 -22 93 -60 128 l-34 32 27 13 c15 7
35 16 44 21 10 5 36 9 58 9 36 0 42 -4 66 -41 24 -38 26 -40 47 -26 14 9 26
33 34 63 6 27 16 65 22 84 16 51 15 53 -26 46 -105 -18 -113 -18 -119 -2 -9
22 -79 57 -99 50 -10 -4 -30 7 -55 32 -31 31 -40 47 -40 74 0 20 6 44 13 55 8
11 20 42 27 68 11 42 11 50 -3 64 -14 14 -18 14 -45 -6 -17 -11 -35 -21 -40
-21 -6 0 -30 -18 -54 -39 -68 -63 -114 -82 -168 -70 -95 21 -97 21 -120 2 -12
-10 -26 -28 -31 -40 -5 -13 -15 -23 -24 -23 -8 0 -15 -4 -15 -10 0 -5 5 -10
11 -10 5 0 7 -5 4 -10 -4 -7 -11 -7 -18 -2 -7 5 -25 12 -41 16 -35 9 -98 50
-89 59 3 4 12 2 20 -4 23 -20 14 -2 -16 29 -23 26 -27 37 -22 64 11 60 35 83
91 84 66 1 80 15 80 78 0 49 3 53 70 125 70 74 91 120 50 107 -11 -3 -28 -9
-38 -12 -10 -3 -29 3 -43 14 -20 17 -24 28 -22 73 1 35 6 57 17 65 9 6 16 16
16 23 0 6 9 11 20 11 11 0 20 5 20 10 0 15 16 12 85 -16 57 -22 67 -23 87 -11
25 15 118 12 118 -4 0 -5 7 -9 15 -9 8 0 15 4 15 9 0 15 81 42 104 35 32 -10
36 -24 14 -59 -11 -20 -15 -36 -9 -39 16 -10 91 3 107 19 9 8 24 15 35 15 43
0 82 82 45 96 -8 3 -18 19 -21 35 -4 16 -15 34 -26 39 -11 7 -19 22 -19 38 -1
46 -48 85 -75 62 -7 -5 -32 -13 -57 -16 -42 -6 -48 -4 -75 25 -17 17 -35 31
-42 31 -6 0 -11 4 -11 8 0 4 -13 13 -30 19 -25 9 -30 17 -30 43 0 23 5 33 20
37 21 6 35 36 25 53 -3 5 -3 15 1 21 4 8 9 7 15 -2 18 -29 9 24 -10 55 -10 17
-24 49 -31 71 -7 22 -24 48 -37 58 -18 15 -23 28 -23 68 0 27 4 49 8 49 8 0
23 26 67 111 8 16 22 43 31 60 9 17 14 33 11 36 -8 7 -28 -7 -22 -16 2 -5 -15
-5 -38 0 -23 4 -42 7 -43 6 0 -1 -17 9 -37 23 -36 25 -50 60 -23 60 7 0 25 11
40 25 15 14 38 25 51 25 22 0 23 4 23 54 -1 91 61 163 92 106 6 -10 26 -22 45
-26 30 -5 38 -13 55 -52 25 -55 23 -73 -9 -88 -13 -7 -35 -24 -48 -38 -13 -14
-33 -26 -43 -26 -14 0 -20 -7 -20 -24 0 -29 16 -36 86 -36 49 0 58 3 85 32
l29 32 0 -25 c0 -17 8 -30 25 -39 14 -7 32 -24 40 -36 18 -29 72 -57 91 -50 8
3 14 1 14 -4 0 -6 16 -18 35 -27 19 -9 35 -24 35 -33 0 -20 53 -52 82 -48 59
6 98 -14 158 -80 74 -80 89 -122 70 -194 -14 -55 -46 -118 -61 -118 -5 0 -9
-22 -9 -50 l0 -50 -41 0 c-62 0 -82 15 -75 55 6 30 3 36 -27 59 -19 14 -48 29
-65 32 -18 4 -32 10 -32 14 0 4 -11 11 -24 14 -19 5 -26 15 -31 46 -4 22 -10
42 -15 45 -13 8 1 44 24 63 24 19 56 80 56 107 0 20 -30 18 -113 -6 -41 -12
-52 -11 -80 2 -17 9 -50 22 -72 29 -64 21 -105 40 -105 48 0 5 -28 6 -61 4
-49 -4 -60 -2 -54 8 5 9 4 11 -4 6 -16 -10 7 -46 63 -101 54 -52 96 -103 96
-114 0 -5 13 -14 29 -21 16 -6 43 -27 60 -46 18 -19 51 -46 74 -61 58 -36 65
-49 56 -96 -4 -22 -5 -46 -3 -52 3 -7 -1 -17 -9 -23 -8 -7 -12 -25 -9 -47 5
-41 30 -57 72 -45 20 5 26 14 30 46 4 28 9 38 20 35 8 -2 29 -6 47 -9 37 -5
60 -27 65 -61 1 -13 12 -29 23 -35 28 -16 45 -39 40 -54 -5 -13 41 -36 55 -27
5 3 11 -1 13 -7 4 -9 6 -7 6 3 1 9 -5 22 -13 28 -40 34 -16 85 29 61 25 -14
33 -44 15 -55 -15 -9 -12 -68 6 -110 13 -31 13 -43 4 -64 -7 -14 -11 -26 -9
-26 1 0 -3 -10 -9 -21 -6 -12 -19 -20 -29 -19 -24 2 -92 34 -75 35 7 0 10 5 7
11 -4 6 -10 8 -13 5 -3 -3 -13 1 -22 9 -14 13 -21 13 -54 -5 -21 -10 -47 -26
-56 -35 -12 -11 -32 -16 -57 -13 -29 2 -38 -1 -38 -12 0 -12 10 -14 43 -12 33
3 42 0 42 -12 0 -10 -9 -16 -25 -16 -17 0 -23 -4 -19 -14 6 -17 -27 -26 -79
-22 -20 2 -40 0 -43 -5 -7 -12 -111 -11 -119 1 -3 6 -16 10 -29 10 -12 0 -27
5 -33 11 -16 16 -47 3 -39 -16 3 -9 -2 -24 -12 -34 -38 -40 -44 -61 -27 -87 9
-14 23 -28 32 -31 19 -8 54 35 48 58 -8 24 30 53 59 45 14 -3 27 -2 30 3 9 14
49 1 68 -23 9 -11 20 -18 24 -14 4 4 1 14 -5 22 -8 10 -9 16 -1 21 15 9 32 -5
26 -22 -4 -9 9 -32 30 -56 30 -36 43 -44 97 -54 34 -6 77 -12 95 -12 18 -1 52
-10 75 -21 23 -11 60 -23 82 -27 22 -3 48 -13 57 -21 17 -14 18 63 18 1616 l0
1632 -110 0 -110 0 6 -147 c3 -82 10 -156 15 -166 6 -9 9 -37 8 -61 -2 -30 3
-49 14 -60 21 -22 31 -74 20 -115 l-8 -32 -43 33 c-23 18 -42 41 -42 51 0 16
-3 17 -15 7 -19 -16 -19 -25 2 -46 13 -13 14 -19 5 -22 -25 -8 -6 -82 23 -82
30 0 29 -62 -3 -125 -8 -16 -19 -38 -23 -47 -12 -24 -11 -68 1 -68 6 0 10 -11
10 -25 0 -14 8 -29 20 -35 12 -6 25 -29 31 -55 6 -25 18 -45 26 -47 19 -4 42
-81 50 -166 5 -58 3 -66 -20 -90 -27 -30 -42 -77 -28 -87 6 -3 10 -28 9 -56 0
-48 23 -114 47 -131 6 -5 5 -11 -4 -17 -7 -5 -9 -10 -5 -12 15 -6 46 -68 39
-78 -3 -5 -1 -12 5 -16 16 -10 12 -34 -10 -65 -14 -20 -26 -26 -43 -23 -19 4
-26 0 -30 -18 -8 -30 -3 -36 38 -43 19 -4 35 -12 35 -18 0 -6 6 -19 14 -27 13
-15 20 -41 17 -67 -1 -13 -35 -54 -45 -54 -3 0 -27 21 -53 46 -51 51 -96 74
-143 74 -16 0 -30 5 -30 10 0 6 -8 10 -18 10 -10 0 -25 12 -32 26 -8 14 -22
30 -32 35 -10 5 -18 21 -18 34 0 14 -4 25 -10 25 -5 0 -10 22 -10 49 0 43 -4
52 -34 79 -19 16 -52 40 -74 52 -26 15 -46 36 -58 61 -17 38 -16 39 7 74 36
53 90 49 164 -13 36 -30 65 -75 65 -101 0 -13 9 -20 30 -23 39 -6 74 17 66 45
-3 11 1 35 9 54 11 25 20 33 39 33 15 0 26 6 26 14 0 7 3 28 6 46 7 30 6 31
-22 28 -19 -2 -28 -8 -26 -17 2 -8 1 -25 -3 -38 l-5 -23 -30 22 c-17 12 -30
29 -30 37 -1 24 -41 68 -73 80 -16 6 -44 11 -63 11 -19 0 -34 5 -34 10 0 6
-10 10 -22 10 -13 0 -32 7 -42 15 -11 8 -28 15 -38 15 -10 0 -18 6 -18 14 0 8
-7 27 -15 43 -41 79 -55 121 -60 188 -2 22 -4 42 -5 45 0 3 -4 -1 -9 -9 -11
-17 -31 -6 -31 18 0 9 -13 27 -30 39 -23 17 -30 31 -30 55 0 47 9 53 76 60 71
7 87 -3 98 -65 5 -28 12 -38 25 -38 29 0 47 28 33 51 -17 26 -15 34 12 65 13
14 31 35 40 45 10 13 29 19 54 19 46 0 70 22 70 63 0 20 -5 27 -14 23 -11 -4
-14 6 -14 42 0 27 -6 54 -12 60 -10 10 -10 15 2 22 8 6 21 8 28 5 6 -2 12 0
12 6 0 7 17 9 49 4 46 -6 49 -5 44 13 -2 11 0 29 6 40 8 16 5 24 -20 48 l-30
29 -19 -25 c-10 -13 -17 -27 -14 -31 8 -13 -26 -31 -48 -25 -30 7 -94 65 -102
92 -5 17 -14 22 -38 20 -28 -1 -34 4 -55 45 -19 36 -35 51 -72 69 -37 17 -53
32 -69 66 -12 25 -22 51 -22 59 0 20 -69 70 -97 70 -22 1 -32 -10 -14 -17 5
-1 22 -31 38 -66 25 -51 28 -64 17 -73 -8 -6 -21 -9 -29 -5 -22 8 -19 -20 5
-44 11 -11 20 -33 20 -50 0 -37 -29 -51 -110 -53 l-55 -2 -3 -38 c-4 -42 11
-67 38 -67 10 0 52 -16 93 -34 63 -29 81 -33 107 -26 21 6 28 5 24 -2 -5 -7 0
-9 14 -6 24 7 91 -22 112 -46 7 -9 19 -16 27 -16 24 0 55 -36 51 -61 -5 -36
-82 -89 -129 -89 -25 0 -42 -5 -45 -14 -7 -19 -33 -28 -30 -11 1 7 7 19 14 27
18 22 -14 97 -45 104 -31 8 -87 -34 -110 -84 -9 -20 -22 -40 -27 -44 -13 -9
-17 -68 -5 -68 15 0 10 -30 -5 -36 -8 -3 -17 -16 -20 -29 -3 -12 -11 -25 -18
-28 -23 -8 -58 12 -69 40 -6 15 -16 31 -22 35 -8 5 -8 11 -2 16 6 4 18 29 28
57 l18 50 -35 32 c-40 38 -52 41 -61 14 -8 -27 -65 -97 -77 -93 -14 4 -49 -24
-62 -50 -8 -15 -20 -22 -34 -21 -15 2 -22 -3 -22 -15 0 -12 -18 -26 -55 -43
-30 -13 -55 -27 -55 -31 0 -5 17 -16 38 -26 31 -15 37 -22 35 -47 -3 -46 -12
-72 -28 -89 -13 -13 -14 -19 -3 -36 7 -11 24 -24 38 -27 14 -3 37 -15 51 -26
24 -17 30 -18 54 -6 38 19 50 54 26 76 -41 41 -9 153 43 153 13 0 29 -7 36
-15 7 -8 18 -15 24 -14 26 3 35 -2 29 -16 -4 -13 3 -11 36 6 23 12 45 18 49
15 3 -4 1 -11 -7 -15 -9 -6 -6 -10 10 -14 13 -3 28 -2 35 4 8 7 18 2 33 -17
16 -21 26 -25 47 -20 30 8 66 -17 57 -40 -3 -8 2 -25 11 -39 9 -13 16 -36 16
-50 0 -27 -31 -65 -53 -65 -8 0 -13 -13 -14 -34 -1 -18 -9 -45 -18 -60 -10
-14 -14 -26 -10 -26 5 0 0 -9 -11 -21 -14 -15 -28 -20 -55 -17 -21 2 -35 -1
-32 -5 3 -5 -4 -6 -17 -2 -26 8 -70 -28 -70 -57 0 -10 -4 -18 -9 -18 -5 0 -11
-13 -14 -30 -5 -21 -12 -30 -27 -30 -11 0 -20 -4 -20 -10 0 -5 -3 -9 -7 -8
-13 3 -53 -13 -53 -21 0 -5 11 -20 25 -35 14 -15 25 -31 25 -35 0 -5 7 -11 15
-15 38 -14 -13 -116 -59 -116 -22 0 -20 -33 3 -54 19 -17 66 -28 113 -27 21 1
29 -4 34 -23 7 -30 -5 -54 -37 -70 -19 -9 -23 -19 -21 -43 2 -17 -2 -34 -7
-38 -6 -3 -11 -34 -11 -68 -1 -39 -6 -69 -15 -81 -8 -11 -15 -14 -15 -8 0 10
-5 10 -20 2 -12 -6 -27 -7 -37 -2 -27 13 -99 15 -121 3 -16 -8 -30 -5 -65 14
-44 25 -44 26 -39 71 4 40 2 46 -17 51 -11 3 -19 9 -16 13 3 4 -2 11 -10 14
-19 7 -22 -2 -28 -84 -5 -53 -3 -62 7 -48 11 15 13 15 25 -5 9 -14 10 -22 3
-25 -15 -5 -4 -32 26 -64 22 -24 34 -28 81 -28 44 0 67 -7 109 -31 29 -16 55
-36 58 -43 7 -19 -14 -66 -30 -66 -23 0 -30 -38 -11 -56 13 -13 21 -14 41 -6
13 7 24 18 24 27 0 8 5 15 10 15 6 0 10 -4 10 -10 0 -5 24 -10 53 -10 41 0 58
-5 72 -20 10 -11 24 -20 31 -20 24 0 46 -108 26 -135 -23 -33 -77 -65 -107
-65 -46 0 -145 44 -145 64 0 9 -7 16 -15 16 -8 0 -15 5 -15 10 0 6 -8 10 -17
10 -14 0 -15 -2 -5 -9 23 -14 44 -63 31 -72 -7 -4 -9 -17 -5 -33 5 -22 1 -28
-34 -46 -37 -19 -39 -22 -33 -53 3 -17 12 -36 20 -40 18 -11 17 -57 -2 -57
-11 0 -15 -11 -15 -41 0 -38 -2 -41 -22 -35 -13 3 -26 6 -30 6 -10 0 -48 70
-48 89 0 9 -7 26 -15 37 -8 10 -15 28 -15 39 0 23 -60 119 -93 151 -12 11 -30
23 -41 27 -13 5 -17 14 -13 29 4 12 1 28 -4 35 -13 15 -5 29 21 36 13 3 20 0
20 -9 0 -8 -6 -11 -15 -8 -8 4 -15 1 -15 -6 0 -7 8 -10 19 -7 11 2 37 1 58 -2
44 -8 66 -4 57 11 -4 5 -7 29 -9 51 -3 55 -15 84 -26 65 -6 -9 -9 -7 -9 9 0
16 -4 21 -15 17 -9 -4 -15 0 -15 7 -1 8 -14 -12 -31 -43 -16 -32 -40 -65 -54
-74 -14 -9 -25 -22 -25 -29 0 -7 -13 -42 -30 -77 -16 -34 -30 -72 -30 -84 0
-19 5 -21 50 -17 44 3 51 1 65 -21 18 -27 13 -80 -8 -93 -19 -12 -87 -14 -108
-3 -27 15 -25 -7 3 -30 18 -14 20 -21 10 -32 -6 -8 -9 -18 -5 -21 14 -15 -11
-6 -38 14 l-29 20 -11 -28 c-6 -15 -19 -77 -30 -138 -53 -305 -80 -421 -114
-490 -33 -67 -124 -200 -192 -281 -36 -43 -97 -174 -82 -174 6 0 7 -4 4 -10
-11 -18 -23 -11 -30 17 -3 14 -22 49 -40 77 -35 52 -95 122 -95 111 0 -4 -6 0
-14 7 -7 7 -30 27 -50 43 -52 42 -127 138 -171 220 -21 39 -44 79 -52 90 -7
11 -13 24 -13 29 0 5 11 -8 25 -28 14 -20 25 -41 25 -46 0 -6 5 -10 11 -10 5
0 7 -4 4 -10 -3 -5 -3 -10 2 -10 4 0 21 -23 37 -51 32 -58 39 -66 119 -150 31
-33 57 -55 57 -50 0 5 -11 19 -25 32 -43 40 -130 160 -170 234 -21 39 -44 78
-52 87 -14 15 -12 17 19 23 28 5 45 0 95 -29 34 -20 66 -36 72 -36 17 0 23 20
11 35 -10 12 -10 15 0 15 9 0 7 7 -5 20 -12 13 -14 20 -5 20 10 0 9 4 -1 17
-13 15 -12 15 8 5 30 -16 51 -15 29 1 -20 14 -13 16 76 19 16 1 28 8 31 18 2
9 17 20 33 23 22 4 36 17 53 49 13 24 40 58 60 75 l36 33 -78 -4 c-75 -3 -77
-3 -83 21 -4 14 -9 21 -13 15 -14 -22 -75 -10 -128 25 -61 40 -71 52 -52 64
11 6 10 12 -5 28 -11 12 -25 21 -33 21 -7 0 -13 7 -13 15 0 8 5 15 10 15 6 0
10 -5 10 -10 0 -7 7 -7 21 0 17 10 18 14 7 27 -11 14 -10 16 10 11 15 -4 25
-2 29 8 3 8 15 14 27 14 12 0 39 9 61 20 22 11 32 20 22 20 -9 0 -14 6 -12 13
3 7 -10 17 -36 25 -50 16 -150 88 -156 113 -3 11 -10 19 -17 19 -20 1 23 21
52 24 15 2 77 5 137 6 98 3 104 4 55 10 -30 5 -89 9 -130 9 -118 2 -139 13
-105 57 13 16 14 16 9 2 -8 -25 13 -23 26 2 6 11 23 23 37 26 15 4 38 13 52
20 14 8 32 14 39 14 25 0 1 20 -40 32 -32 9 -36 13 -22 19 13 4 1 9 -36 14
l-55 8 51 17 c41 14 110 45 121 55 2 1 -11 29 -27 63 -17 34 -30 73 -30 87 0
13 -4 35 -10 50 -7 19 -6 35 5 62 8 19 12 39 10 44 -3 5 0 21 8 36 7 15 20 54
27 85 12 52 11 60 -3 76 -10 10 -17 24 -17 30 0 16 -47 15 -53 0 -4 -10 -7
-10 -18 0 -7 6 -21 12 -31 12 -10 0 -18 5 -18 10 0 6 -7 10 -16 10 -9 0 -18 9
-21 20 -3 12 -12 19 -22 18 -11 -2 -16 4 -15 20 0 16 -4 21 -14 17 -12 -5 -13
-3 -2 10 10 12 10 19 2 27 -15 15 -15 60 0 92 9 20 14 23 25 15 10 -9 13 -6
13 15 0 16 5 26 15 26 8 0 15 -5 15 -11 0 -8 4 -8 15 1 8 6 19 9 24 6 6 -4 0
14 -12 39 -19 40 -23 42 -28 22 l-5 -22 -16 25 c-9 14 -19 38 -22 54 -6 25 -4
28 11 22 14 -5 13 -2 -4 13 -29 24 -29 36 -1 55 13 9 17 16 9 16 -10 0 -12 9
-8 35 4 25 2 35 -7 35 -9 0 -12 10 -10 30 3 25 0 30 -18 30 -22 0 -22 0 -3 14
11 7 40 16 64 20 24 4 51 14 58 24 11 12 16 14 19 5 3 -7 10 -13 15 -13 6 0 8
4 4 9 -6 11 8 13 80 11 28 0 52 -5 53 -10 7 -19 21 -10 17 10 -3 17 -1 19 16
10 11 -6 17 -15 14 -21 -8 -11 25 -12 44 0 9 6 21 5 31 -1 19 -12 50 -5 50 11
0 5 -7 16 -15 25 -8 8 -15 17 -15 20 0 10 39 6 45 -4 3 -5 1 -10 -5 -10 -7 0
2 -17 19 -39 22 -28 41 -41 68 -46 21 -4 44 -12 52 -18 11 -9 15 -9 18 1 5 14
33 16 33 2 0 -5 9 -10 20 -10 11 0 20 -6 20 -14 0 -9 7 -12 19 -9 13 3 21 -2
26 -16 3 -12 13 -21 21 -21 8 0 19 -10 25 -22 l10 -23 -5 23 c-3 15 0 22 7 19
7 -2 13 -13 15 -25 2 -12 9 -22 16 -22 7 0 13 -6 13 -12 1 -23 50 -131 55
-122 3 5 4 17 3 27 -3 14 0 16 10 7 9 -7 11 -24 7 -52 -3 -30 -2 -39 6 -34 16
9 15 -7 0 -22 -9 -9 -7 -17 10 -33 13 -12 19 -25 15 -32 -10 -16 -14 -77 -5
-77 4 0 13 -14 21 -31 10 -24 11 -36 2 -55 -16 -36 -14 -57 5 -50 9 3 12 2 9
-5 -4 -6 1 -19 10 -29 16 -18 16 -20 -10 -44 -18 -17 -25 -31 -21 -42 3 -9 1
-24 -6 -33 -12 -14 -11 -14 5 -2 15 12 17 11 17 -4 0 -10 -7 -23 -15 -29 -14
-10 -13 -13 5 -28 19 -17 20 -17 34 5 8 12 18 54 22 92 4 39 13 79 20 91 8 11
11 24 7 29 -5 4 0 5 10 2 12 -5 17 -1 17 14 0 33 -19 62 -33 50 -10 -7 -13 6
-14 57 -2 157 -7 213 -19 230 -7 9 -14 24 -14 33 0 9 -16 56 -35 103 -27 68
-35 101 -35 152 0 51 -4 69 -20 87 -32 34 -37 68 -12 85 15 10 19 18 13 30 -5
10 -14 29 -19 44 -10 25 -15 27 -63 25 -51 -2 -53 -1 -60 28 -4 17 -9 49 -12
73 -2 23 -7 45 -10 49 -3 3 -21 0 -38 -6 -30 -10 -38 -8 -92 24 -32 19 -61 35
-64 35 -10 0 -88 73 -100 94 -7 12 -12 29 -13 40 0 18 -43 66 -59 66 -4 0 -16
-9 -25 -19 -20 -22 -54 -33 -62 -20 -3 5 -21 7 -40 3 -33 -6 -35 -5 -29 18 3
13 -1 45 -10 71 -16 46 -12 97 7 97 6 0 8 10 5 23 -4 12 -2 28 2 36 7 11 17 8
47 -15 22 -15 44 -34 51 -42 17 -21 46 -7 38 17 -3 11 1 31 10 44 12 19 13 30
5 52 -17 44 -50 85 -69 85 -10 0 -29 9 -43 19 -24 20 -25 20 -41 0 -21 -24
-22 -65 -2 -73 9 -3 15 -18 15 -35 0 -26 -4 -29 -44 -35 -32 -5 -45 -12 -49
-26 -3 -12 -14 -20 -26 -20 -17 0 -21 -6 -21 -32 0 -17 6 -39 14 -47 8 -9 17
-36 20 -60 5 -45 18 -61 47 -61 9 0 21 -12 28 -27 10 -21 14 -24 21 -13 5 8
12 11 16 7 10 -10 -23 -34 -66 -48 -25 -9 -35 -9 -38 0 -2 6 -12 11 -23 11
-14 0 -18 6 -16 23 2 26 -21 30 -36 6 -13 -21 24 -65 45 -53 7 4 5 -2 -4 -13
-22 -24 -23 -44 -4 -37 8 3 17 1 21 -5 3 -6 30 -11 59 -11 56 0 106 -26 106
-56 0 -8 4 -14 9 -14 5 0 18 -16 30 -35 15 -26 27 -35 46 -35 26 0 75 -39 75
-60 0 -14 -11 -13 -84 6 -33 9 -73 16 -88 16 -26 -1 -26 0 -7 19 25 25 25 43
0 29 -11 -5 -23 -15 -26 -20 -3 -6 -18 -10 -33 -11 -26 -1 -26 -1 -4 -8 19 -5
12 -9 -35 -19 -79 -18 -135 -37 -220 -74 l-73 -32 -38 43 c-31 34 -40 40 -45
28 -3 -9 -1 -20 6 -24 8 -5 1 -10 -18 -13 -19 -4 -35 0 -45 8 -12 13 -15 11
-25 -16 -5 -17 -13 -34 -18 -38 -4 -4 -7 -16 -7 -26 0 -10 -6 -18 -13 -18 -9
0 -11 12 -9 40 4 43 7 41 -68 45 -31 1 -51 -4 -64 -17 -26 -24 -39 -23 -84 6
-53 34 -81 63 -88 91 -3 13 -12 26 -20 29 -8 3 -18 16 -23 29 -6 14 -20 26
-34 29 -17 3 -24 1 -21 -7 3 -6 -4 -19 -15 -29 -15 -14 -24 -15 -40 -6 -12 6
-21 19 -21 30 0 12 -13 26 -32 36 -18 9 -34 18 -36 19 -1 1 5 18 13 38 13 32
18 35 37 28 13 -5 23 -15 23 -22 1 -21 14 -39 29 -39 21 0 69 106 62 135 -4
14 -24 43 -46 65 -44 45 -51 70 -20 70 23 0 27 27 8 52 -16 19 -58 34 -58 19
0 -5 -13 -12 -28 -16 -31 -6 -63 -46 -43 -53 8 -3 5 -9 -8 -19 -12 -8 -21 -25
-21 -38 0 -13 -5 -25 -12 -27 -18 -6 -1 -38 21 -38 11 0 24 7 29 16 6 10 8 -6
8 -47 -1 -44 -5 -64 -15 -67 -11 -4 -12 2 -7 23 9 34 -16 65 -45 58 -14 -4
-19 0 -19 16 0 11 -4 21 -8 21 -5 0 -16 17 -25 38 -24 55 -78 109 -130 131
-37 16 -46 25 -49 48 -2 19 -9 29 -23 31 -12 2 -26 15 -32 32 -15 39 -33 38
-33 0 0 -36 -38 -97 -64 -104 -11 -3 -55 2 -98 11 -71 14 -81 14 -112 -1 -19
-9 -41 -16 -50 -16 -20 0 -23 -66 -3 -73 8 -4 7 -6 -3 -6 -22 -1 -37 11 -43
34 -4 17 -5 17 -6 -4 0 -13 -13 -40 -29 -60 -15 -20 -32 -45 -37 -56 -12 -24
-50 -32 -71 -15 -21 19 -17 62 11 100 14 19 25 40 25 47 0 7 9 13 20 13 12 0
31 12 44 27 28 32 33 114 10 151 -10 15 -11 22 -3 22 8 0 8 4 -1 14 -6 8 -17
13 -23 11 -60 -18 -67 -16 -67 15 0 20 -5 30 -15 30 -8 0 -15 5 -15 10 0 6
-15 10 -33 8 -34 -2 -57 7 -57 23 0 5 6 9 14 9 7 0 19 7 26 15 11 13 2 15 -74
15 l-86 0 0 -149z m807 -163 c-3 -8 -6 -5 -6 6 -1 11 2 17 5 13 3 -3 4 -12 1
-19z m-497 8 c0 -3 -4 -8 -10 -11 -5 -3 -10 -1 -10 4 0 6 5 11 10 11 6 0 10
-2 10 -4z m3935 -136 c-3 -5 -14 -10 -23 -10 -15 0 -15 2 -2 10 20 13 33 13
25 0z m-2007 -127 c-16 -2 -40 -2 -55 0 -16 2 -3 4 27 4 30 0 43 -2 28 -4z
m-1131 -137 c-5 -14 -33 -20 -55 -11 -15 6 -14 8 7 20 27 14 54 9 48 -9z m185
-98 c-7 -7 -16 -7 -29 1 -17 10 -17 10 0 11 9 0 17 8 17 18 1 16 1 16 11 -1 8
-13 8 -22 1 -29z m1342 27 c10 -7 15 -18 12 -23 -3 -6 0 -13 6 -15 10 -4 10
-8 -1 -15 -11 -8 -10 -13 7 -30 11 -11 28 -25 38 -32 16 -9 16 -11 2 -6 -22 7
-35 -12 -14 -20 9 -3 16 -12 16 -19 0 -7 6 -15 13 -18 6 -2 9 -8 5 -12 -4 -4
-15 3 -25 14 -9 12 -25 21 -34 21 -9 0 -24 9 -33 19 -10 11 -29 22 -43 26 -20
5 -23 8 -13 20 7 8 14 30 15 47 2 18 3 39 4 46 1 16 21 15 45 -3z m771 -24 c7
-12 -12 -24 -25 -16 -11 7 -4 25 10 25 5 0 11 -4 15 -9z m-2429 -25 c28 -21 7
-40 -29 -27 -27 10 -33 21 -20 34 10 11 28 8 49 -7z m1744 -16 c0 -5 -4 -10
-10 -10 -5 0 -10 5 -10 10 0 6 5 10 10 10 6 0 10 -4 10 -10z m15 -40 c8 -13
-5 -13 -25 0 -13 8 -13 10 2 10 9 0 20 -4 23 -10z m15 -36 c0 -8 -4 -12 -10
-9 -5 3 -10 10 -10 16 0 5 5 9 10 9 6 0 10 -7 10 -16z m-2210 -23 c0 -10 9
-21 20 -24 14 -4 20 -14 20 -35 0 -27 -5 -31 -59 -51 -69 -25 -109 -27 -139
-5 -38 27 -20 94 22 78 17 -6 100 28 111 46 10 16 25 11 25 -9z m2288 -51 c13
0 14 -15 3 -44 -6 -16 -9 -16 -22 -5 -8 8 -28 22 -44 31 -17 9 -31 23 -33 32
-5 22 40 25 64 4 11 -10 26 -18 32 -18z m-273 -80 c27 -30 11 -35 -20 -6 -19
17 -23 26 -13 26 8 0 23 -9 33 -20z m72 -50 c1 -11 -2 -20 -8 -20 -5 0 -9 9
-9 20 0 11 4 20 8 20 4 0 8 -9 9 -20z m-2369 -45 c22 -35 29 -75 13 -75 -5 0
-22 3 -40 6 -25 5 -32 12 -37 40 -6 35 7 64 30 64 6 0 21 -16 34 -35z m772
-113 c14 -8 28 -21 33 -28 4 -7 14 -11 22 -8 9 4 19 -4 27 -23 7 -15 18 -32
25 -36 33 -20 -13 -81 -67 -89 -44 -7 -110 11 -110 29 0 7 -7 16 -15 19 -8 3
-23 21 -34 39 -25 43 -16 83 25 106 31 18 54 16 94 -9z m1870 -45 c0 -18 -2
-19 -10 -7 -13 20 -13 43 0 35 6 -3 10 -16 10 -28z m-2047 -34 c-7 -2 -19 -2
-25 0 -7 3 -2 5 12 5 14 0 19 -2 13 -5z m22 -28 c26 -5 53 -71 36 -88 -22 -22
-68 -11 -115 28 -25 22 -46 43 -46 47 0 21 57 27 125 13z m1190 -84 c3 -5 1
-12 -5 -16 -5 -3 -10 1 -10 9 0 18 6 21 15 7z m1535 -121 c0 -30 -14 -40 -24
-17 -3 6 -3 2 0 -10 6 -25 -5 -30 -24 -11 -17 17 -15 45 6 57 30 18 42 12 42
-19z m480 -240 c0 -5 -5 -10 -11 -10 -5 0 -7 5 -4 10 3 6 8 10 11 10 2 0 4 -4
4 -10z m-2066 -55 c18 -14 15 -15 -40 -15 -56 1 -58 1 -34 15 32 18 50 18 74
0z m-924 -27 c1 -7 10 -24 21 -37 18 -22 23 -23 40 -13 17 11 23 10 39 -10 20
-25 18 -38 -6 -38 -8 0 -13 4 -10 9 3 5 -2 12 -11 15 -11 5 -28 -6 -53 -34
l-36 -40 -87 -3 c-48 -1 -87 1 -87 5 0 4 6 8 13 8 11 0 47 67 47 88 0 5 10 14
23 21 12 6 33 18 47 26 31 18 60 19 60 3z m885 -8 c16 -7 13 -9 -17 -9 -21 -1
-38 4 -38 9 0 12 27 12 55 0z m45 -60 c17 0 19 -32 4 -55 -15 -23 -15 -25 10
-36 14 -7 26 -15 26 -18 0 -7 -107 -105 -202 -185 -31 -26 -61 -45 -66 -42 -4
2 -7 24 -6 48 1 29 -4 51 -17 70 -11 14 -15 29 -10 32 12 8 3 42 -15 57 -8 6
-14 19 -14 29 0 23 40 29 146 22 52 -3 88 -1 100 7 16 10 15 10 -10 5 -25 -6
-28 -4 -23 10 4 10 1 19 -8 22 -8 4 -15 9 -15 13 0 9 62 29 78 25 8 -2 17 -4
22 -4z m-785 -101 c4 -6 17 -14 28 -18 19 -7 17 -9 -18 -21 -29 -9 -40 -10
-43 -1 -2 6 -10 11 -18 11 -20 0 -17 28 4 33 30 8 41 7 47 -4z m195 -130 c0
-72 -3 -89 -15 -89 -8 0 -15 -4 -15 -9 0 -5 -12 -8 -27 -6 -34 3 -75 52 -67
80 7 23 53 75 67 75 12 0 37 26 37 40 0 6 5 8 10 5 6 -3 10 -46 10 -96z m680
5 c0 -21 -17 -25 -34 -8 -17 16 -21 46 -9 58 9 9 43 -31 43 -50z m1478 -3 c10
-6 10 -10 -2 -20 -11 -9 -12 -18 -3 -41 9 -22 8 -33 -1 -42 -16 -16 -23 -6
-32 41 -10 55 7 82 38 62z m752 -281 c0 -5 -4 -10 -10 -10 -5 0 -10 5 -10 10
0 6 5 10 10 10 6 0 10 -4 10 -10z m-3315 -80 c4 -7 12 -7 25 0 33 18 48 11 54
-24 8 -44 0 -63 -35 -81 -15 -8 -30 -23 -34 -34 -3 -10 -15 -21 -26 -24 -12
-3 -18 -10 -15 -16 4 -5 -3 -15 -14 -21 -31 -17 -80 15 -76 49 5 43 16 58 46
64 25 6 30 12 35 52 7 43 25 59 40 35z m818 -58 c15 -17 14 -62 -2 -62 -7 0
-41 64 -41 75 0 12 28 3 43 -13z m-345 -24 c-3 -7 -11 -13 -18 -13 -7 0 -15 6
-17 13 -3 7 4 12 17 12 13 0 20 -5 18 -12z m-30 -91 c6 -5 12 -16 12 -25 0 -9
9 -28 20 -42 14 -17 19 -40 19 -75 0 -40 -2 -45 -9 -28 -6 14 -15 20 -23 17
-8 -3 -33 3 -56 13 -39 17 -41 20 -41 60 0 32 5 45 20 53 11 6 17 16 14 25 -7
16 19 17 44 2z m-208 -33 c0 -18 -31 -26 -46 -13 -10 8 -11 16 -3 30 8 16 13
17 29 6 11 -6 20 -17 20 -23z m801 -104 c19 -11 27 -40 10 -40 -5 0 -12 -8
-14 -17 -4 -14 -5 -13 -6 3 0 12 -8 24 -16 28 -17 6 -21 36 -4 36 6 0 19 -5
30 -10z m929 -101 c0 -5 -4 -9 -10 -9 -5 0 -10 7 -10 16 0 8 5 12 10 9 6 -3
10 -10 10 -16z m-880 -9 c0 -5 -2 -10 -4 -10 -3 0 -8 5 -11 10 -3 6 -1 10 4
10 6 0 11 -4 11 -10z m950 -20 c12 -23 3 -25 -22 -6 -22 16 -23 26 -3 26 8 0
19 -9 25 -20z m1388 -27 c34 -22 62 -52 62 -68 0 -6 -6 -19 -12 -28 -12 -15
-16 -16 -42 -2 -16 9 -35 14 -42 11 -15 -6 -74 30 -74 46 0 7 -9 19 -20 26
-12 7 -18 17 -15 22 11 17 113 12 143 -7z m-1396 -28 c-6 -32 -17 -32 -18 0
-1 14 4 25 11 25 8 0 10 -9 7 -25z m24 -43 c-11 -10 -15 4 -8 28 l7 25 3 -23
c2 -13 1 -26 -2 -30z m-36 -17 c0 -8 -4 -15 -10 -15 -5 0 -7 7 -4 15 4 8 8 15
10 15 2 0 4 -7 4 -15z m-30 -80 c0 -8 -4 -15 -10 -15 -5 0 -7 7 -4 15 4 8 8
15 10 15 2 0 4 -7 4 -15z m-27 -60 c-3 -9 -8 -14 -10 -11 -3 3 -2 9 2 15 9 16
15 13 8 -4z m-873 -85 c0 -5 -2 -10 -4 -10 -3 0 -8 5 -11 10 -3 6 -1 10 4 10
6 0 11 -4 11 -10z m803 -50 c-9 -16 -21 -30 -26 -30 -4 0 0 14 10 30 9 17 21
30 26 30 4 0 0 -13 -10 -30z m38 7 c-10 -9 -11 -8 -5 6 3 10 9 15 12 12 3 -3
0 -11 -7 -18z m-71 -57 c-8 -5 -11 -10 -6 -10 5 0 -3 -11 -18 -25 -15 -14 -24
-25 -21 -25 3 0 -9 -16 -27 -36 -90 -99 -138 -148 -138 -143 0 3 8 15 18 26 9
11 35 41 57 67 22 26 54 63 72 81 17 19 37 43 43 55 6 11 16 20 23 20 7 0 6
-4 -3 -10z m162 -52 c2 -29 -2 -62 -9 -75 -6 -13 -9 -23 -5 -24 4 0 -4 -5 -17
-10 -18 -7 -27 -6 -32 3 -10 15 -2 28 14 24 7 -1 9 -1 5 1 -11 6 -10 41 1 47
5 4 12 24 16 46 9 56 22 50 27 -12z m425 -64 c-3 -3 -12 -4 -19 -1 -8 3 -5 6
6 6 11 1 17 -2 13 -5z m-639 -59 c-3 -3 -9 2 -12 12 -6 14 -5 15 5 6 7 -7 10
-15 7 -18z m847 2 c11 -1 26 -6 33 -11 7 -4 28 -5 45 -2 60 10 115 -69 72
-104 -16 -13 -65 -6 -65 10 0 6 -7 10 -15 10 -9 0 -18 7 -21 15 -4 8 -10 15
-15 15 -14 0 -108 64 -108 74 -1 4 11 5 27 2 15 -4 36 -8 47 -9z m-705 -22 c0
-8 5 -15 10 -15 6 0 10 -4 10 -9 0 -5 -9 -7 -20 -4 -20 5 -29 43 -10 43 6 0
10 -7 10 -15z m-260 -101 c0 -8 -5 -12 -10 -9 -6 4 -8 11 -5 16 9 14 15 11 15
-7z m70 -58 c0 -3 -4 -8 -10 -11 -5 -3 -10 -1 -10 4 0 6 5 11 10 11 6 0 10 -2
10 -4z m-313 -148 c6 -7 11 -28 11 -45 1 -25 -4 -33 -18 -33 -18 0 -30 26 -30
68 0 24 21 30 37 10z m53 -150 c0 -11 -11 -23 -26 -28 -32 -12 -34 -12 -34 0
0 6 9 10 19 10 11 0 23 5 27 12 5 8 -2 9 -24 5 -21 -4 -32 -3 -32 5 0 6 -8 20
-17 31 -10 11 -13 18 -8 15 6 -3 19 -2 30 2 24 9 65 -24 65 -52z m27 40 c-3
-8 -6 -5 -6 6 -1 11 2 17 5 13 3 -3 4 -12 1 -19z m13 -98 c0 -5 -12 -10 -27
-10 -22 0 -25 2 -13 10 20 13 40 13 40 0z m-65 -18 c-3 -3 -11 0 -18 7 -9 10
-8 11 6 5 10 -3 15 -9 12 -12z m1485 -132 c0 -5 -4 -10 -10 -10 -5 0 -10 5
-10 10 0 6 5 10 10 10 6 0 10 -4 10 -10z m-110 -24 c0 -3 -4 -8 -10 -11 -5 -3
-10 -1 -10 4 0 6 5 11 10 11 6 0 10 -2 10 -4z m-125 -26 c3 -5 1 -10 -4 -10
-6 0 -11 5 -11 10 0 6 2 10 4 10 3 0 8 -4 11 -10z m151 -25 c9 -8 11 -15 6
-15 -5 0 -15 7 -22 15 -7 8 -9 15 -6 15 4 0 14 -7 22 -15z m59 -25 c3 -5 1
-10 -4 -10 -6 0 -11 5 -11 10 0 6 2 10 4 10 3 0 8 -4 11 -10z m-25 -34 c0 -3
-4 -8 -10 -11 -5 -3 -10 -1 -10 4 0 6 5 11 10 11 6 0 10 -2 10 -4z m-1330 -15
c0 -6 -4 -13 -10 -16 -5 -3 -10 1 -10 9 0 9 5 16 10 16 6 0 10 -4 10 -9z
m1306 -49 c6 -4 15 -18 19 -32 l8 -25 -26 25 c-35 32 -35 55 -1 32z m-1296
-28 c0 -8 -4 -12 -10 -9 -5 3 -10 10 -10 16 0 5 5 9 10 9 6 0 10 -7 10 -16z"/>
<path d="M3738 873 c7 -3 16 -2 19 1 4 3 -2 6 -13 5 -11 0 -14 -3 -6 -6z"/>
<path d="M205 4560 c3 -5 13 -10 21 -10 8 0 14 5 14 10 0 6 -9 10 -21 10 -11
0 -17 -4 -14 -10z"/>
<path d="M347 4533 c9 -62 15 -66 52 -34 19 16 47 33 64 38 17 4 32 14 35 21
3 9 -17 12 -77 12 l-80 0 6 -37z"/>
<path d="M3417 4563 c-12 -11 -8 -23 8 -23 20 0 19 -18 -1 -22 -27 -5 16 -45
58 -53 31 -6 36 -4 41 17 5 15 1 27 -10 36 -13 9 -13 12 -3 12 8 0 -3 9 -25
20 -41 21 -57 24 -68 13z"/>
<path d="M4080 4547 c0 -28 17 -47 43 -47 10 0 15 -5 12 -11 -4 -6 2 -13 14
-16 22 -6 27 -18 11 -28 -5 -3 -10 -24 -10 -46 0 -22 -5 -50 -11 -61 -13 -23
-5 -34 34 -43 24 -7 29 -3 42 30 15 34 14 39 -6 80 -20 39 -21 47 -9 76 8 17
24 45 38 60 l24 29 -91 0 c-88 0 -91 -1 -91 -23z"/>
<path d="M3135 4441 c-3 -5 0 -13 6 -16 5 -4 8 -13 5 -21 -4 -9 4 -19 22 -27
15 -6 30 -16 34 -21 9 -13 78 -18 78 -6 0 5 -7 25 -16 44 -12 25 -25 35 -46
38 -23 4 -28 1 -23 -11 4 -10 -2 -8 -18 7 -26 24 -33 27 -42 13z"/>
<path d="M2100 4370 c0 -11 6 -20 14 -20 9 0 12 7 9 20 -3 11 -9 20 -14 20 -5
0 -9 -9 -9 -20z"/>
<path d="M3456 4361 c-4 -5 -3 -16 0 -25 6 -15 -6 -21 -30 -17 -15 3 -57 -30
-51 -39 4 -6 0 -19 -8 -31 -8 -11 -12 -29 -10 -40 4 -15 8 -17 14 -8 6 11 11
10 26 -3 52 -45 97 -29 87 32 -4 23 -2 40 5 44 14 9 14 38 -1 71 -12 26 -23
32 -32 16z"/>
<path d="M2916 4333 c-12 -12 -6 -33 9 -33 8 0 15 6 15 14 0 17 -14 28 -24 19z"/>
<path d="M1920 4256 c0 -2 7 -7 16 -10 8 -3 12 -2 9 4 -6 10 -25 14 -25 6z"/>
<path d="M2392 4253 c-15 -6 -6 -23 14 -23 8 0 14 7 14 15 0 15 -6 17 -28 8z"/>
<path d="M3257 4249 c7 -7 15 -10 18 -7 3 3 -2 9 -12 12 -14 6 -15 5 -6 -5z"/>
<path d="M1480 4240 c0 -5 -15 -29 -34 -53 -19 -25 -31 -49 -27 -53 4 -5 16
-35 25 -66 16 -52 21 -58 54 -68 24 -6 40 -6 46 0 6 6 21 10 34 10 21 0 23 3
16 23 -4 12 -8 55 -8 95 -1 64 -3 72 -18 69 -10 -3 -23 4 -32 18 -15 22 -56
41 -56 25z"/>
<path d="M1780 3905 c0 -9 6 -12 15 -9 8 4 12 10 9 15 -8 14 -24 10 -24 -6z"/>
<path d="M2936 3892 c-5 -8 37 -52 50 -52 3 0 4 12 2 28 -2 19 -9 28 -25 30
-11 2 -24 -1 -27 -6z"/>
<path d="M1620 3710 c0 -5 5 -10 10 -10 6 0 10 5 10 10 0 6 -4 10 -10 10 -5 0
-10 -4 -10 -10z"/>
<path d="M3808 3693 c7 -3 16 -2 19 1 4 3 -2 6 -13 5 -11 0 -14 -3 -6 -6z"/>
<path d="M4257 3581 c-15 -6 -11 -12 27 -39 24 -18 47 -32 50 -32 11 0 6 56
-6 68 -13 13 -43 15 -71 3z"/>
<path d="M3040 3541 c0 -5 7 -12 16 -15 22 -9 24 -8 18 9 -7 16 -34 21 -34 6z"/>
<path d="M3523 3538 c-26 -12 -29 -36 -11 -84 9 -25 9 -39 0 -59 -14 -30 -2
-61 34 -88 20 -15 27 -16 48 -5 30 16 76 82 76 108 0 32 -19 70 -35 70 -9 0
-15 9 -15 23 0 16 -9 28 -25 35 -31 14 -43 14 -72 0z"/>
<path d="M8 3413 c7 -3 16 -2 19 1 4 3 -2 6 -13 5 -11 0 -14 -3 -6 -6z"/>
<path d="M3085 3330 c-5 -21 -2 -39 9 -55 9 -13 16 -33 16 -45 0 -11 7 -20 15
-20 9 0 28 -6 44 -14 40 -21 56 -7 42 37 -7 19 -18 40 -26 47 -7 6 -16 21 -19
34 -4 17 -11 23 -25 19 -11 -3 -21 2 -24 11 -10 25 -25 19 -32 -14z"/>
<path d="M4384 2967 c-3 -9 -13 -17 -21 -17 -10 0 -13 -6 -9 -16 3 -9 6 -18 6
-20 0 -2 6 -4 14 -4 8 0 17 -6 20 -12 3 -7 5 -4 4 7 0 11 2 28 7 38 4 11 3 23
-3 29 -8 8 -13 7 -18 -5z"/>
<path d="M4320 2930 c0 -5 5 -10 10 -10 6 0 10 5 10 10 0 6 -4 10 -10 10 -5 0
-10 -4 -10 -10z"/>
<path d="M2540 2760 c-8 -5 -23 -10 -33 -10 -28 0 -88 -31 -81 -41 3 -5 -2 -9
-11 -9 -12 0 -15 -5 -11 -16 3 -9 6 -24 6 -35 0 -11 11 -24 25 -31 18 -8 22
-14 13 -19 -10 -7 -10 -11 0 -21 19 -19 170 -18 182 2 8 12 13 13 30 3 19 -13
89 -19 78 -7 -4 3 -48 18 -100 34 -51 16 -84 29 -73 30 15 1 12 5 -12 16 -18
8 -33 20 -33 28 0 8 -7 16 -15 20 -8 3 -15 10 -15 16 0 5 7 10 15 10 8 0 15
-4 15 -10 0 -5 5 -10 12 -10 6 0 9 3 6 6 -7 7 23 39 43 47 9 3 7 6 -6 6 -11 0
-27 -4 -35 -9z"/>
<path d="M2612 2753 c-6 -2 -10 -9 -6 -14 9 -14 41 -10 48 6 5 15 -15 19 -42
8z"/>
<path d="M3341 2611 c-25 -7 -42 -31 -21 -31 13 0 70 28 70 35 0 6 -19 5 -49
-4z"/>
<path d="M2480 2531 c22 -18 109 -45 118 -36 2 2 -13 8 -32 15 -20 6 -34 15
-32 18 2 4 -6 7 -17 8 -12 0 -31 4 -42 8 -16 6 -15 4 5 -13z"/>
<path d="M2560 2334 c0 -17 89 -134 103 -134 13 0 7 35 -10 60 -48 69 -93 104
-93 74z"/>
<path d="M2360 2290 c-11 -7 -2 -10 33 -10 26 0 47 5 47 10 0 13 -60 13 -80 0z"/>
<path d="M2660 2185 c0 -2 10 -23 21 -45 21 -41 23 -99 4 -155 -4 -12 2 -8 14
10 28 40 28 105 -1 156 -18 33 -38 51 -38 34z"/>
<path d="M2368 2103 c6 -2 18 -2 25 0 6 3 1 5 -13 5 -14 0 -19 -2 -12 -5z"/>
<path d="M2428 2093 c7 -3 16 -2 19 1 4 3 -2 6 -13 5 -11 0 -14 -3 -6 -6z"/>
<path d="M2475 2078 c11 -7 33 -26 50 -44 23 -24 38 -32 62 -30 17 1 35 5 39
9 12 12 36 8 28 -5 -4 -7 -3 -8 4 -4 15 9 16 56 2 56 -5 0 -10 -7 -10 -15 0
-8 -6 -15 -12 -15 -17 0 -94 27 -129 45 -33 18 -63 20 -34 3z"/>
<path d="M2871 1837 c-8 -15 -11 -30 -8 -34 12 -12 29 14 25 38 -3 22 -3 22
-17 -4z"/>
<path d="M2148 1643 c7 -3 16 -2 19 1 4 3 -2 6 -13 5 -11 0 -14 -3 -6 -6z"/>
<path d="M3587 1430 c-10 -16 -22 -30 -28 -30 -5 0 -9 -5 -9 -11 0 -5 5 -7 12
-3 7 5 9 2 5 -8 -4 -12 -1 -14 14 -11 11 3 19 0 19 -7 0 -8 10 -10 33 -7 111
20 118 28 68 78 -41 41 -90 40 -114 -1z"/>
<path d="M4033 1164 c-4 -11 1 -22 12 -31 19 -13 37 -14 36 0 -1 4 -1 16 -1
27 0 25 -38 28 -47 4z"/>
<path d="M3310 1121 c0 -5 5 -13 10 -16 6 -3 10 -2 10 4 0 5 -4 13 -10 16 -5
3 -10 2 -10 -4z"/>
<path d="M4561 1114 c0 -11 3 -14 6 -6 3 7 2 16 -1 19 -3 4 -6 -2 -5 -13z"/>
<path d="M4465 1103 c-11 -3 -23 -8 -28 -12 -8 -8 12 -121 23 -121 9 0 7 -87
-3 -96 -4 -4 -7 -20 -7 -36 0 -15 -4 -28 -8 -28 -18 0 -40 -97 -37 -167 1 -40
-1 -73 -6 -73 -5 0 -9 -13 -9 -28 0 -16 -13 -46 -30 -68 -16 -21 -37 -60 -46
-86 -8 -27 -19 -48 -24 -48 -4 0 -11 -12 -14 -26 -11 -43 -78 -124 -103 -124
-21 0 -22 -3 -17 -72 9 -128 0 -118 113 -118 l98 0 9 63 c4 34 7 73 5 85 -1
15 8 33 25 49 l27 24 -13 74 c-13 74 -13 74 18 138 19 39 29 72 25 85 -15 58
25 129 80 142 18 5 23 14 25 52 3 39 0 46 -17 51 -30 8 -42 50 -35 122 4 42 3
65 -5 69 -16 10 -14 41 4 56 21 17 20 86 -1 94 -17 6 -18 6 -49 -1z"/>
<path d="M2150 1050 c-12 -7 -12 -12 -2 -22 6 -6 12 -20 12 -29 0 -29 41 -90
67 -100 52 -20 84 0 64 39 -5 9 -14 29 -21 43 -30 65 -81 94 -120 69z"/>
<path d="M4026 614 c-18 -18 -21 -44 -5 -44 6 0 9 -7 5 -15 -3 -9 4 -27 17
-41 l22 -25 6 31 c9 44 -1 110 -17 110 -7 0 -20 -7 -28 -16z"/>
<path d="M4553 296 c-9 -11 -9 -15 0 -19 7 -3 14 3 14 14 2 22 2 22 -14 5z"/>
<path d="M4500 167 c0 -80 1 -84 23 -83 17 1 21 -4 20 -21 -1 -11 4 -24 12
-27 13 -5 15 12 14 107 -1 62 -3 104 -6 95 -6 -22 -12 -22 -41 -2 l-22 15 0
-84z"/>
</g>
</svg>
